<?xml version="1.0" encoding="UTF-8" standalone="no"?>
<svg width="32px" height="38px" viewBox="0 0 32 38" version="1.1" xmlns="http://www.w3.org/2000/svg" xmlns:xlink="http://www.w3.org/1999/xlink" xmlns:sketch="http://www.bohemiancoding.com/sketch/ns">
    <!-- Generator: Sketch 3.2.2 (9983) - http://www.bohemiancoding.com/sketch -->
    <title>substance-abuse-icon</title>
    <desc>Created with Sketch.</desc>
    <defs></defs>
    <g id="Page-1" stroke="none" stroke-width="1" fill="none" fill-rule="evenodd" sketch:type="MSPage">
        <g id="Featured-Resources-2" sketch:type="MSArtboardGroup" transform="translate(-18.000000, -1068.000000)" fill="#F6A623">
            <g id="UNISEX-RESTROOMS-CATEGORY-2" sketch:type="MSLayerGroup" transform="translate(16.000000, 1068.000000)">
                <g id="substance-abuse-icon" sketch:type="MSShapeGroup">
                    <path d="M14.180346,36.2053711 C14.5638965,35.6905292 14.4979296,35.2201202 14.4771971,35.1206292 L14.4771971,15.6474358 C14.4771971,13.5272146 12.29275,11.4591537 11.9129691,11.1162478 C12.2550546,8.13731287 10.9206383,3.90749571 10.8122641,3.5713513 L10.8122641,3.26225299 C11.0148767,3.25066181 11.1779092,3.0796918 11.1779092,2.87008451 C11.1779092,2.65854536 11.0158191,2.48854129 10.8122641,2.47598417 L10.8122641,2.34171959 C10.8122641,2.0809179 10.7585482,1.89642484 10.6793879,1.76216027 C10.7472396,1.71289772 10.7915316,1.63948688 10.7915316,1.55062111 C10.7915316,1.40573128 10.6775031,1.28692162 10.5342607,1.28692162 L6.59226666,1.28692162 C6.44996662,1.28692162 6.33311095,1.40573128 6.33311095,1.55062111 C6.33311095,1.63948688 6.38117255,1.71289772 6.44713946,1.76216027 C6.36797917,1.89642484 6.31237849,2.0809179 6.31237849,2.34171959 L6.31237849,2.47598417 C6.11165061,2.48950722 5.94861811,2.65854536 5.94861811,2.87008451 C5.94861811,3.0796918 6.11165061,3.25162774 6.31237849,3.26225299 L6.31237849,3.57328316 C6.20400428,3.90749571 4.8724151,8.13731287 5.21261587,11.1162478 C4.83377734,11.4591537 2.64838787,13.5272146 2.64838787,15.6493677 L2.64838787,35.1206292 C2.6285978,35.2210862 2.5616885,35.6905292 2.94618135,36.2053711 C3.46355039,36.8931148 4.85733695,37.7180209 8.56279248,37.7180209 C12.2710752,37.7180209 13.6639193,36.8931148 14.180346,36.2053711 Z"></path>
                    <path d="M32.6,0.89903339 C32.0285714,0.313948168 31.2571429,0 30.4428571,0 C29.7714286,0 29.1428571,0.214055569 28.6142857,0.599355593 L20.0285714,9.21865984 C19.6857143,9.71812283 19.5,10.3174784 19.5,10.9311044 C19.5,11.7445156 19.8142857,12.5151156 20.4,13.1002008 C20.9714286,13.6710157 21.7142857,13.9849638 22.5142857,13.9992342 C23.1571429,14.0135046 23.7714286,13.8279898 24.2857143,13.4712305 L32.8857143,4.90900772 C33.2857143,4.38100398 33.5,3.73883727 33.5,3.06812982 C33.5,2.24044829 33.1857143,1.46984824 32.6,0.89903339 L32.6,0.89903339 Z M31.9,4.52370769 L31.9,4.52370769 C31.8857143,4.53797806 31.8857143,4.53797806 31.8714286,4.55224843 L31.5285714,4.89473734 L31.5285714,4.90900772 L28.2285714,8.20546348 C27.3142857,8.20546348 25.1857143,6.26469299 25.1857143,5.37992997 C25.4857143,5.08025217 25.2285714,5.33711885 25.2285714,5.33711885 L25.2285714,5.33711885 L28.5714286,1.99785198 L28.9285714,1.6410927 L28.9428571,1.62682232 L28.9571429,1.61255195 C29.3428571,1.22725193 29.8714286,0.998925989 30.4285714,0.998925989 C30.9857143,0.998925989 31.5,1.21298156 31.9,1.61255195 C32.2857143,1.99785198 32.5142857,2.52585571 32.5142857,3.08240019 C32.5142857,3.63894467 32.3,4.13840767 31.9,4.52370769 L31.9,4.52370769 Z" id="Shape-3"></path>
                </g>
            </g>
        </g>
    </g>
</svg>