<?xml version="1.0" encoding="UTF-8" standalone="no"?>
<svg width="26px" height="26px" viewBox="0 0 26 26" version="1.1" xmlns="http://www.w3.org/2000/svg" xmlns:xlink="http://www.w3.org/1999/xlink" xmlns:sketch="http://www.bohemiancoding.com/sketch/ns">
    <!-- Generator: Sketch 3.2.2 (9983) - http://www.bohemiancoding.com/sketch -->
    <title>back-button</title>
    <desc>Created with Sketch.</desc>
    <defs></defs>
    <g id="Featured-Resources" stroke="none" stroke-width="1" fill="none" fill-rule="evenodd" sketch:type="MSPage">
        <g sketch:type="MSArtboardGroup" transform="translate(-181.000000, -113.000000)" id="MASTHEAD">
            <g sketch:type="MSLayerGroup" transform="translate(161.000000, 113.000000)">
                <g id="back-button" transform="translate(20.000000, 0.000000)" sketch:type="MSShapeGroup">
                    <circle id="back-button-circle" fill="#33B5E5" cx="13" cy="13" r="13"></circle>
                    <path d="M14,21.0058594 C14.09375,21.0058594 14.171875,20.9667969 14.2421875,20.9121094 L16.578125,18.5761719 C16.703125,18.4511719 16.703125,18.2246094 16.578125,18.0996094 L11.46875,13.0058594 L16.578125,7.91210938 C16.703125,7.78710938 16.703125,7.56054688 16.578125,7.43554688 L14.2421875,5.09960938 C14.1171875,4.96679688 13.890625,4.96679688 13.765625,5.09960938 L6.09375,12.7636719 C5.96875,12.8964844 5.96875,13.1152344 6.09375,13.2480469 L13.765625,20.9121094 C13.8359375,20.9667969 13.90625,21.0058594 14,21.0058594 L14,21.0058594 Z" id="previous-icon" fill-opacity="0.7" fill="#FFFFFF"></path>
                </g>
            </g>
        </g>
    </g>
</svg>