<?xml version="1.0" encoding="UTF-8" standalone="no"?>
<svg width="36px" height="38px" viewBox="0 0 36 38" version="1.1" xmlns="http://www.w3.org/2000/svg" xmlns:xlink="http://www.w3.org/1999/xlink" xmlns:sketch="http://www.bohemiancoding.com/sketch/ns">
    <!-- Generator: Sketch 3.2.2 (9983) - http://www.bohemiancoding.com/sketch -->
    <title>food-bank-icon</title>
    <desc>Created with Sketch.</desc>
    <defs></defs>
    <g id="Page-1" stroke="none" stroke-width="1" fill="none" fill-rule="evenodd" sketch:type="MSPage">
        <g id="Featured-Resources-2" sketch:type="MSArtboardGroup" transform="translate(-15.000000, -1201.000000)" fill="#F6A623">
            <g id="UNISEX-RESTROOMS-CATEGORY-3" sketch:type="MSLayerGroup" transform="translate(15.000000, 1201.000000)">
                <g id="food-bank-icon" sketch:type="MSShapeGroup">
                    <path d="M5.75431579,10.2303729 C7.24168421,11.4811525 9.55894737,11.1198305 9.55894737,11.1198305 C9.55894737,11.1198305 9.46357895,8.73291525 7.97494737,7.48213559 C6.48821053,6.232 4.17031579,6.59074576 4.17031579,6.59074576 C4.17031579,6.59074576 4.26631579,8.98023729 5.75431579,10.2303729 L5.75431579,10.2303729 Z" id="Shape"></path>
                    <path d="M35.4176842,15.3854915 L31.6610526,15.3854915 L31.6610526,13.908 C31.6610526,12.8163051 31.2581053,11.7973898 30.7812632,10.839661 C30.5147368,10.3037966 30.2191579,9.78338983 29.9583158,9.24366102 C29.7732632,8.85850847 29.5970526,8.44694915 29.5237895,8.01928814 C29.7694737,7.85891525 29.8591579,7.51691525 29.8098947,7.22064407 C29.7517895,6.8799322 29.4347368,6.70152542 29.1252632,6.70152542 L27.9618947,6.70152542 L26.8269474,6.70152542 C26.5174737,6.70152542 26.2263158,6.83742373 26.1309474,7.16911864 C26.0431579,7.47440678 26.1404211,7.84861017 26.4025263,8.01928814 C26.2818947,8.76705085 25.8612632,9.46972881 25.5157895,10.1234576 C25.0623158,10.9832881 24.6075789,11.8592203 24.3890526,12.8150169 C24.2084211,13.6078644 24.2652632,14.4554576 24.2652632,15.2644068 L24.2652632,15.3861356 L21.4591579,15.3861356 C20.6892632,14.5610847 19.8303158,13.8017288 18.9688421,13.2954915 C18.7743158,13.1802034 18.7149474,13.0127458 18.7408421,12.8517288 C18.7964211,12.5238983 19.1993684,12.2237627 19.5858947,12.4491864 C20.5938947,13.0430169 21.5658947,13.7160678 22.4191579,14.4998983 C22.4191579,14.5005424 22.5202105,13.7688814 22.3882105,13.0449492 C22.2461053,12.2733559 21.9075789,11.7072203 21.9075789,11.7072203 C20.8913684,10.2947797 19.4349474,8.71745763 17.9734737,7.86213559 C17.3930526,7.5220678 18.012,6.67705085 18.5917895,7.01711864 C19.5978947,7.60708475 20.568,8.28077966 21.4206316,9.0620339 C20.1764211,2.72891525 17.8016842,-0.341355932 14.7972632,0.0302711864 C13.3787368,0.204813559 11.7682105,1.24820339 12.5658947,5.60016949 L14.0993684,13.9820678 C13.0686316,12.5657627 11.4208421,11.6447458 9.55894737,11.6447458 C7.13557895,11.6447458 5.07347368,13.2008136 4.26821053,15.3854915 L0.498315789,15.3854915 L0.498315789,37.6418983 L35.4176842,37.6418983 L35.4176842,15.3854915 L35.4176842,15.3854915 Z M31.9256842,34.0808475 L3.99031579,34.0808475 L3.99031579,18.9471864 L31.9256842,18.9471864 L31.9256842,34.0808475 L31.9256842,34.0808475 Z" id="Shape"></path>
                </g>
            </g>
        </g>
    </g>
</svg>