<?xml version="1.0" encoding="UTF-8" standalone="no"?>
<svg width="31px" height="40px" viewBox="0 0 31 40" version="1.1" xmlns="http://www.w3.org/2000/svg" xmlns:xlink="http://www.w3.org/1999/xlink" xmlns:sketch="http://www.bohemiancoding.com/sketch/ns">
    <!-- Generator: Sketch 3.2.2 (9983) - http://www.bohemiancoding.com/sketch -->
    <title>childcare-icon</title>
    <desc>Created with Sketch.</desc>
    <defs></defs>
    <g id="Page-1" stroke="none" stroke-width="1" fill="none" fill-rule="evenodd" sketch:type="MSPage">
        <g id="Featured-Resources-2" sketch:type="MSArtboardGroup" transform="translate(-18.000000, -360.000000)" fill="#F6A623">
            <g id="FOOD-CATEGORY" sketch:type="MSLayerGroup" transform="translate(18.000000, 360.000000)">
                <g id="childcare-icon" sketch:type="MSShapeGroup">
                    <path d="M14.9733875,3.84522952 C14.9733875,5.75487849 13.4202875,7.3030333 11.50565,7.3030333 C9.5933375,7.3030333 8.043725,5.75487849 8.043725,3.84522952 C8.043725,1.93480648 9.593725,0.387038704 11.50565,0.387038704 C13.4202875,0.386651665 14.9733875,1.93480648 14.9733875,3.84522952 L14.9733875,3.84522952 Z" id="Shape"></path>
                    <path d="M6.9575625,13.2622682 L7.8441625,13.2622682 L6.5782,17.5978758 L16.4753375,17.5978758 L15.214025,13.2622682 L16.1014,13.2622682 L17.3704625,17.5978758 L20.282525,17.5978758 L18.2950375,11.0286679 C17.9834875,9.94418542 16.6233625,8.03492349 14.27395,7.97725473 L8.871425,7.97261026 C6.4685375,7.98460846 5.0789625,9.93141314 4.7647,11.0294419 L2.7384625,17.5982628 L5.6916,17.5982628 L6.9575625,13.2622682 L6.9575625,13.2622682 Z" id="Shape"></path>
                    <path d="M22.289,19.0283708 C22.289,19.0550765 22.2921,19.0806211 22.292875,19.1088749 L0,19.1088749 L0,23.8164266 L0,39.0506571 L0,39.0909091 L3.69675,39.0909091 L3.69675,33.7130063 L26.9471375,33.7339064 L26.9572125,39.059559 L30.62335,39.0510441 L30.650475,10.4961026 C26.023725,10.5506751 22.289,14.3463636 22.289,19.0283708 L22.289,19.0283708 Z M18.31635,28.8986319 C18.31635,29.0731863 18.28225,29.2287759 18.2237375,29.359982 C17.9555875,30.2559766 17.1147125,30.9263276 16.139375,30.9263276 L10.84845,30.9263276 C9.66425,30.9263276 8.67535,29.9378308 8.67535,28.7534923 C8.67535,27.9476778 9.2624125,27.2393969 9.297675,27.1852115 C9.779725,26.4606751 10.261,25.7369127 10.7418875,25.0116022 C9.9467375,24.5510261 9.14965,24.0912241 8.355275,23.6306481 C7.1424,22.929721 8.2355375,21.0537444 9.4519,21.7569937 C10.632225,22.4405041 11.81255,23.1209181 12.992875,23.8044284 C13.23855,23.9445365 13.4838375,24.1477318 13.5853625,24.3424122 C13.7837625,24.7240324 13.766325,25.1664176 13.445475,25.6459586 C13.2389375,25.9579118 13.0320125,26.2694779 12.8243125,26.58027 L16.1397625,26.58027 L16.1436375,26.58027 L16.1436375,24.7414491 C16.1436375,23.339982 18.3175125,23.339982 18.3175125,24.7414491 C18.31635,26.1270477 18.31635,27.5130333 18.31635,28.8986319 L18.31635,28.8986319 Z M21.3896125,31.1945455 C20.0349125,31.1945455 18.9344125,30.0953555 18.9344125,28.7438164 C18.9344125,27.390342 20.0349125,26.2930873 21.3896125,26.2930873 C22.7447,26.2930873 23.842875,27.389955 23.842875,28.7438164 C23.842875,30.0953555 22.7447,31.1945455 21.3896125,31.1945455 L21.3896125,31.1945455 Z" id="Shape"></path>
                </g>
            </g>
        </g>
    </g>
</svg>