<?xml version="1.0" encoding="UTF-8" standalone="no"?>
<svg width="30px" height="33px" viewBox="0 0 30 33" version="1.1" xmlns="http://www.w3.org/2000/svg" xmlns:xlink="http://www.w3.org/1999/xlink" xmlns:sketch="http://www.bohemiancoding.com/sketch/ns">
    <!-- Generator: Sketch 3.2.2 (9983) - http://www.bohemiancoding.com/sketch -->
    <title>category-icon-clothing</title>
    <desc>Created with Sketch.</desc>
    <defs></defs>
    <g id="Featured-Resources" stroke="none" stroke-width="1" fill="none" fill-rule="evenodd" sketch:type="MSPage">
        <g sketch:type="MSArtboardGroup" transform="translate(-181.000000, -180.000000)" id="CLOTHING-CATEGORY" fill="#F6A623">
            <g sketch:type="MSLayerGroup" transform="translate(181.000000, 180.000000)">
                <g id="category-icon-clothing" sketch:type="MSShapeGroup">
                    <path d="M30,14.9043319 C28.6743903,16.5529363 27.1279524,17.9206126 25.7530564,19.4932724 C24.7462075,18.8211956 23.9115407,17.9454795 22.8554055,17.302302 L22.8554055,33 L7.12027139,33 L7.12027139,17.3782467 C6.21199514,17.8164407 5.23010945,18.8205235 4.29751008,19.4926003 C2.84836459,17.9972294 1.32688984,16.5522643 -1.77635684e-15,14.9036598 C1.37553607,13.6394834 2.8234014,12.1972065 4.29751008,10.7529135 C4.76412981,10.2898526 5.2531524,9.56871414 5.72041221,9.33684764 C6.50643282,8.9497314 7.61057415,8.9497314 8.54445369,8.76827066 C9.45401011,8.58680992 10.336043,8.30520974 11.2936056,8.19969368 C10.9754849,12.9963059 18.4862062,13.2799223 18.4125968,8.3556155 L18.4125968,8.12307692 C19.29719,8.30453766 20.4518978,8.51019316 21.3832171,8.6916539 C22.3651027,8.89798148 23.4948473,9.00282547 24.2072585,9.33617556 C24.7231646,9.56871414 25.2371504,10.2891805 25.6800871,10.7522414 C27.1029892,12.1716676 28.5271715,13.5379998 30,14.9043319 L30,14.9043319 Z" id="Shape"></path>
                    <path d="M25.6531873,12.6747736 C25.0179054,12.0323874 15.7818853,6.54739766 15.6841496,6.49798334 L15.6352818,6.47327617 L15.6352818,5.53440406 L15.6597157,5.5096969 C15.7818853,5.38616109 15.9284888,5.28733245 16.0750923,5.16379664 C16.734808,4.6202391 17.5411272,3.95314576 17.5411272,2.71778771 C17.5411272,1.21065089 16.3438654,0 14.8533965,0 C13.3140598,0 12.1656658,1.11182224 12.1656658,2.5942519 C12.1656658,2.81661635 12.2389675,3.01427364 12.3367032,3.1625166 C12.4833067,3.36017389 12.7032119,3.43429537 13.0208528,3.40958821 C13.4850972,3.36017389 13.558399,2.91544499 13.558399,2.44600894 L13.558399,2.32247313 C13.5828329,1.95186572 14.144813,1.38360101 14.8533965,1.38360101 C15.586414,1.38360101 16.1972619,1.97657288 16.1972619,2.71778771 C16.1972619,3.43429537 16.0506584,3.73078131 15.0733017,4.22492453 C14.6090573,4.44728897 14.3647182,4.69436058 14.3647182,5.28733245 L14.3891521,6.47327617 L14.3158504,6.49798334 C14.2181147,6.54739766 4.98209456,12.0323874 4.34681275,12.6747736 C4.00473793,13.0206738 3.85813443,13.9595459 4.17577534,14.7254679 C4.37124666,15.194904 4.78662323,15.7384615 5.73954594,15.7384615 L24.2604541,15.7384615 C25.2133768,15.7384615 25.6287533,15.194904 25.8242247,14.7254679 C26.1418656,13.9595459 25.9952621,13.0206738 25.6531873,12.6747736 L25.6531873,12.6747736 Z M23.6496062,14.3054462 L15.1221696,14.3054462 L6.59473299,14.3054462 C6.25265817,14.3054462 5.71511203,14.2560319 5.73954594,13.7618887 C5.76397986,13.2924526 6.17935643,12.9959667 6.17935643,12.9959667 L15.1221696,7.75804854 L24.0405488,12.9959667 C24.0405488,12.9959667 24.4559254,13.2924526 24.5047932,13.7618887 C24.5292271,14.2313247 23.991681,14.3054462 23.6496062,14.3054462 L23.6496062,14.3054462 Z" id="Hanger"></path>
                </g>
            </g>
        </g>
    </g>
</svg>