<?xml version="1.0" encoding="UTF-8" standalone="no"?>
<svg width="32px" height="30px" viewBox="0 0 32 30" version="1.1" xmlns="http://www.w3.org/2000/svg" xmlns:xlink="http://www.w3.org/1999/xlink" xmlns:sketch="http://www.bohemiancoding.com/sketch/ns">
    <!-- Generator: Sketch 3.2.2 (9983) - http://www.bohemiancoding.com/sketch -->
    <title>court-resources-icon</title>
    <desc>Created with Sketch.</desc>
    <defs></defs>
    <g id="Page-1" stroke="none" stroke-width="1" fill="none" fill-rule="evenodd" sketch:type="MSPage">
        <g id="Featured-Resources-2" sketch:type="MSArtboardGroup" transform="translate(-20.000000, -930.000000)" fill="#F6A623">
            <g id="UNISEX-RESTROOMS-CATEGORY" sketch:type="MSLayerGroup" transform="translate(20.000000, 930.000000)">
                <path d="M27.24864,6.59340659 L27.52,6.59340659 C28.05024,6.59340659 28.48,6.15065934 28.48,5.6043956 C28.48,5.05813187 28.05024,4.61538462 27.52,4.61538462 L17.04768,4.61538462 L16.96,0.989010989 C16.96,0.442747253 16.53024,0 16,0 C15.46976,0 15.04,0.442747253 15.04,0.989010989 L14.95232,4.61538462 L4.48,4.61538462 C3.94976,4.61538462 3.52,5.05813187 3.52,5.6043956 C3.52,6.15065934 3.94976,6.59340659 4.48,6.59340659 L4.75136,6.59340659 L0,20.7692308 C0,20.7692308 0,24.0659341 5.76,24.0659341 C11.52,24.0659341 11.52,20.7692308 11.52,20.7692308 L6.76864,6.59340659 L14.90464,6.59340659 L14.88768,7.29098901 C14.39936,7.64967033 14.08,8.23615385 14.08,8.9010989 C14.08,9.53043956 14.3664,10.0902198 14.8112,10.4525275 L14.41696,26.7573626 C8.3248,27.177033 8.32,30 8.32,30 L23.68,30 C23.68,30 23.67488,27.177033 17.58304,26.757033 L17.1888,10.4521978 C17.63328,10.0898901 17.92,9.53043956 17.92,8.9010989 C17.92,8.23648352 17.60064,7.64967033 17.11264,7.29098901 L17.09568,6.59340659 L25.23136,6.59340659 L20.48,20.7692308 C20.48,20.7692308 20.48,24.0659341 26.24,24.0659341 C32,24.0659341 32,20.7692308 32,20.7692308 L27.24864,6.59340659 L27.24864,6.59340659 Z M5.12,9.58747253 L5.12,20.7692308 L1.42496,20.7692308 L5.12,9.58747253 L5.12,9.58747253 Z M6.4,20.7692308 L6.4,9.58747253 L10.09504,20.7692308 L6.4,20.7692308 L6.4,20.7692308 Z M26.88,9.58747253 L30.57504,20.7692308 L26.88,20.7692308 L26.88,9.58747253 L26.88,9.58747253 Z M25.6,9.58747253 L25.6,20.7692308 L21.90496,20.7692308 L25.6,9.58747253 L25.6,9.58747253 Z" id="court-resources-icon" sketch:type="MSShapeGroup"></path>
            </g>
        </g>
    </g>
</svg>