<?xml version="1.0" encoding="UTF-8" standalone="no"?>
<svg width="40px" height="27px" viewBox="0 0 40 27" version="1.1" xmlns="http://www.w3.org/2000/svg" xmlns:xlink="http://www.w3.org/1999/xlink" xmlns:sketch="http://www.bohemiancoding.com/sketch/ns">
    <!-- Generator: Sketch 3.2.2 (9983) - http://www.bohemiancoding.com/sketch -->
    <title>education-icon</title>
    <desc>Created with Sketch.</desc>
    <defs></defs>
    <g id="Page-1" stroke="none" stroke-width="1" fill="none" fill-rule="evenodd" sketch:type="MSPage">
        <g id="Featured-Resources-2" sketch:type="MSArtboardGroup" transform="translate(-11.000000, -649.000000)" fill="#F6A623">
            <g id="HOUSING-CATEGORY" sketch:type="MSLayerGroup" transform="translate(11.000000, 649.000000)">
                <g id="education-icon" sketch:type="MSShapeGroup">
                    <path d="M30.4950495,14.2941176 L30.4950495,18.9258088 L20.5362376,24.8916176 L10.2970297,18.9258088 L10.2970297,14.2941176 L20.5968317,19.4054559 L30.4950495,14.2941176 Z" id="Shape"></path>
                    <path d="M20.5845545,18.15075 L39.8419802,8.52405882 L20.5841584,0.375220588 L0.788514851,8.52405882 L5.10891089,10.6252941 C5.01069307,13.1200147 4.74059406,17.9851765 4.42693069,19.5583235 C4.16752475,20.8594853 2.91207921,22.71375 0.560792079,25.0695 C0.47049505,25.1604265 0.356039604,25.2946324 0.407524752,25.4185147 C0.461386139,25.5491471 0.652277228,25.5491471 0.715247525,25.5491471 C1.32277228,25.5491471 2.97861386,24.9869118 3.83920792,24.4123676 C3.96514851,24.3277941 4.08,24.2853088 4.18059406,24.2853088 C4.5580198,24.2853088 4.77742574,24.9082941 4.98970297,25.5110294 C5.19128713,26.0831912 5.38138614,26.6239853 5.72990099,26.7986912 C5.78257426,26.8248971 5.83683168,26.8383971 5.89148515,26.8383971 C6.01306931,26.8383971 6.12792079,26.7736765 6.24039604,26.6458235 C6.8819802,25.9172206 7.36712871,23.0127353 7.0360396,20.3591912 C6.73425743,17.9387206 6.88594059,13.8132794 7.11881188,11.60325 L20.5845545,18.15075 L20.5845545,18.15075 Z" id="Shape"></path>
                </g>
            </g>
        </g>
    </g>
</svg>