<?xml version="1.0" encoding="UTF-8" standalone="no"?>
<svg width="24px" height="21px" viewBox="0 0 24 21" version="1.1" xmlns="http://www.w3.org/2000/svg" xmlns:xlink="http://www.w3.org/1999/xlink" xmlns:sketch="http://www.bohemiancoding.com/sketch/ns">
    <!-- Generator: Sketch 3.2.2 (9983) - http://www.bohemiancoding.com/sketch -->
    <title>category-employment-icon@2x</title>
    <desc>Created with Sketch.</desc>
    <defs></defs>
    <g id="Featured-Resources" stroke="none" stroke-width="1" fill="none" fill-rule="evenodd" sketch:type="MSPage">
        <g sketch:type="MSArtboardGroup" transform="translate(-181.000000, -328.000000)" id="EMPLOYMENT-CATEGORY" fill="#F6A623">
            <g sketch:type="MSLayerGroup" transform="translate(181.000000, 325.000000)">
                <path d="M22.5,7.5 L16.5,7.5 L16.5,5.00390625 C16.5,4.25390625 16.1132812,3.7265625 15.3046875,3.421875 C14.6132812,3.140625 13.5585938,3 12,3 C10.4414062,3 9.38671875,3.140625 8.6953125,3.421875 C7.88671875,3.7265625 7.5,4.25390625 7.5,5.00390625 L7.5,7.5 L1.5,7.5 C0.66796875,7.5 0,8.16796875 0,9 L0,22.5 C0,23.3320312 0.66796875,24 1.5,24 L22.5,24 C23.3320312,24 24,23.3320312 24,22.5 L24,9 C24,8.16796875 23.3320312,7.5 22.5,7.5 L22.5,7.5 Z M9.99609375,5.49609375 L14.0039062,5.49609375 L14.0039062,7.5 L9.99609375,7.5 L9.99609375,5.49609375 Z" id="category-employment-icon" sketch:type="MSShapeGroup"></path>
            </g>
        </g>
    </g>
</svg>