<?xml version="1.0" encoding="UTF-8" standalone="no"?>
<svg width="34px" height="37px" viewBox="0 0 34 37" version="1.1" xmlns="http://www.w3.org/2000/svg" xmlns:xlink="http://www.w3.org/1999/xlink" xmlns:sketch="http://www.bohemiancoding.com/sketch/ns">
    <!-- Generator: Sketch 3.2.2 (9983) - http://www.bohemiancoding.com/sketch -->
    <title>financial-services-icon</title>
    <desc>Created with Sketch.</desc>
    <defs></defs>
    <g id="Page-1" stroke="none" stroke-width="1" fill="none" fill-rule="evenodd" sketch:type="MSPage">
        <g id="Featured-Resources-2" sketch:type="MSArtboardGroup" transform="translate(-16.000000, -783.000000)" fill="#F6A623">
            <g id="FREE-WIFI-CATEGORY" sketch:type="MSLayerGroup" transform="translate(16.000000, 783.000000)">
                <g id="financial-services-icon" sketch:type="MSShapeGroup">
                    <path d="M33.66,20.6856118 C33.2739494,19.8968588 31.4831392,20.1832824 30.2031899,18.9392118 C29.8834177,17.5097059 29.3148861,16.1750941 28.5462278,14.9845647 C29.4422785,13.4601647 31.1672405,10.3003647 30.5905316,9.46808235 C29.9492658,8.54177647 24.5617722,9.82241176 22.8079747,10.2685882 C21.4527089,9.73535294 19.9777975,9.44283529 18.4357468,9.44283529 L13.8590886,9.44283529 C9.62156962,9.44283529 5.89405063,11.6523882 3.74172152,14.9941412 C3.20116456,14.8156706 2.1036962,14.5475294 1.51235443,15.0572588 C0.707113924,15.7515529 0.15235443,17.0726706 0.218202532,18.1408824 C0.273721519,19.0445529 1.53043038,19.7196941 1.91518987,19.9055647 C1.83470886,20.4740588 1.79339241,21.0556118 1.79339241,21.6463059 C1.79339241,25.5051882 3.56440506,28.9461882 6.32916456,31.1818588 C6.22544304,32.2631294 5.98572152,35.1769882 6.37005063,35.5652706 C6.84303797,36.0440941 11.5746329,36.7205412 12.0480506,36.2421529 C12.3932152,35.8930471 12.7383797,34.5262235 12.8997722,33.8114706 C13.2161013,33.8367176 13.5363038,33.8493412 13.8590886,33.8493412 L17.7673671,33.8493412 C17.8921772,34.4330706 18.2821013,36.1281059 18.6724557,36.5229176 C19.1458734,37.0017412 23.8774684,36.5229176 24.3504557,36.0440941 C24.6796962,35.7110941 24.7795443,33.3914118 24.8101013,32.0089176 C26.6026329,30.8788941 28.0809873,29.2857176 29.0811899,27.3956706 C29.8550127,27.1841176 30.9783038,26.8271765 31.96,26.3261529 C33.66,25.4586118 34.0847848,21.5540235 33.66,20.6856118 L33.66,20.6856118 Z M19.281443,13.2281529 L12.8149873,13.2281529 C12.2925063,13.2281529 11.8685823,12.7998235 11.8685823,12.2709412 C11.8685823,11.7420588 12.2920759,11.3137294 12.8149873,11.3137294 L19.2810127,11.3137294 C19.8039241,11.3137294 20.2274177,11.7420588 20.2274177,12.2709412 C20.2274177,12.7998235 19.8043544,13.2281529 19.281443,13.2281529 L19.281443,13.2281529 Z M27.3850633,19.6909647 C27.0157975,20.0644471 26.4162785,20.0644471 26.0470127,19.6909647 C25.6777468,19.3170471 25.6777468,18.7111176 26.0470127,18.3376353 C26.4162785,17.9637176 27.0157975,17.9637176 27.3850633,18.3376353 C27.7543291,18.7111176 27.7543291,19.3170471 27.3850633,19.6909647 L27.3850633,19.6909647 Z" id="Shape"></path>
                    <ellipse id="Oval" cx="15.9240506" cy="3.48235294" rx="3.44303797" ry="3.48235294"></ellipse>
                </g>
            </g>
        </g>
    </g>
</svg>