<?xml version="1.0" encoding="UTF-8" standalone="no"?>
<svg width="30px" height="35px" viewBox="0 0 30 35" version="1.1" xmlns="http://www.w3.org/2000/svg" xmlns:xlink="http://www.w3.org/1999/xlink" xmlns:sketch="http://www.bohemiancoding.com/sketch/ns">
    <!-- Generator: Sketch 3.2.2 (9983) - http://www.bohemiancoding.com/sketch -->
    <title>category-food-icon</title>
    <desc>Created with Sketch.</desc>
    <defs></defs>
    <g id="Featured-Resources" stroke="none" stroke-width="1" fill="none" fill-rule="evenodd" sketch:type="MSPage">
        <g sketch:type="MSArtboardGroup" transform="translate(-180.000000, -462.000000)" id="FOOD-CATEGORY" fill="#F6A623">
            <g sketch:type="MSLayerGroup" transform="translate(181.000000, 462.000000)">
                <path d="M13.5154334,16.3898744 L2.7938861,1.63428661 C2.25791315,0.896583131 1.24122955,0.720512541 0.52400157,1.24160917 C-2.26089039,3.26495162 3.60203038,10.9615625 3.60203038,10.9615625 L9.60978459,19.2305268 C9.88603505,19.6107529 10.2485403,19.8815494 10.6467037,20.0557122 L1.57174029,31.1143962 C0.765256098,32.2244265 0.986508566,33.7605643 2.06685736,34.5454836 C3.14656232,35.3299352 4.67653078,35.0661339 5.48301498,33.9561036 L13.1534973,21.9705459 L20.2924423,33.9400363 C21.0989265,35.0500666 22.6279292,35.3145696 23.708278,34.5296502 C24.7886268,33.7447309 25.0095573,32.208827 24.2030731,31.0987967 L15.2219485,18.7384752 L15.3043658,18.6096936 C15.7487256,17.9980847 16.3249443,17.541439 16.9600649,17.2474288 L19.7817413,16.0688734 L19.7827032,16.0675495 C20.4838076,15.7754645 21.1208083,15.2906705 21.6036408,14.6261085 C21.7140909,14.474764 21.8116722,14.3181151 21.9004921,14.1606629 L28.1855845,3.69435731 C28.2785775,3.53386914 28.2413704,3.32783386 28.0916797,3.21907716 C27.9316876,3.10283612 27.7062587,3.14232674 27.5865124,3.3071434 L20.9762296,12.5557031 C20.8119992,12.7817469 20.5004462,12.8355246 20.2805779,12.6757809 C20.0607095,12.5160372 20.01558,12.2031144 20.1798104,11.9770707 L26.7163745,2.67495121 C26.8361208,2.51013456 26.8027295,2.28260009 26.6427375,2.16635905 C26.4830673,2.0503519 26.2569946,2.08937475 26.1372483,2.25419141 L19.4555003,11.4508286 C19.2912699,11.6768723 18.979395,11.7304162 18.7595266,11.5706725 C18.5396582,11.4109287 18.4945287,11.098006 18.6587591,10.8719623 L25.3405071,1.67532509 C25.4602534,1.51050843 25.4275061,1.28344173 25.2668702,1.16673293 C25.1072,1.05072578 24.8811273,1.08974863 24.7613809,1.25456529 L17.9347709,10.345954 C17.7705405,10.5719978 17.4589875,10.6257755 17.2391192,10.4660318 C17.0192508,10.3062881 16.9737994,9.99313144 17.1380298,9.76708771 L23.891565,0.622606983 C24.0113113,0.457790325 23.978242,0.230489743 23.817928,0.114014823 C23.6688811,0.00572589055 23.4611103,0.0337743894 23.3372134,0.171809564 L15.3260095,9.38402172 C15.2021008,9.51598044 15.0839984,9.65822555 14.9741107,9.80947297 C14.4912782,10.4740349 14.2267338,11.2294344 14.1659196,11.9867174 L14.1652797,11.9882751 L13.915709,15.0355747 C13.8608026,15.4971636 13.7282991,15.9551829 13.5154334,16.3898744 Z" id="category-food-icon" sketch:type="MSShapeGroup"></path>
            </g>
        </g>
    </g>
</svg>