<?xml version="1.0" encoding="UTF-8" standalone="no"?>
<svg width="29px" height="29px" viewBox="0 0 29 29" version="1.1" xmlns="http://www.w3.org/2000/svg" xmlns:xlink="http://www.w3.org/1999/xlink" xmlns:sketch="http://www.bohemiancoding.com/sketch/ns">
    <!-- Generator: Sketch 3.2.2 (9983) - http://www.bohemiancoding.com/sketch -->
    <title>free-icon</title>
    <desc>Created with Sketch.</desc>
    <defs></defs>
    <g id="Page-1" stroke="none" stroke-width="1" fill="none" fill-rule="evenodd" sketch:type="MSPage">
        <g id="Featured-Resources-2" sketch:type="MSArtboardGroup" transform="translate(-19.000000, -87.000000)">
            <g id="free-icon" sketch:type="MSLayerGroup" transform="translate(20.000000, 88.000000)">
                <circle id="Oval-40" stroke="#F6A623" stroke-width="2" sketch:type="MSShapeGroup" cx="13.5" cy="13.5" r="13.5"></circle>
                <path d="M21.5554164,5.5 L4.5,22.5554159" id="Line" stroke="#F6A623" stroke-width="2" stroke-linecap="square" sketch:type="MSShapeGroup" transform="translate(13.027708, 14.027708) scale(-1, 1) translate(-13.027708, -14.027708) "></path>
                <path d="M15.2578125,17.5117188 C15.2578125,16.8710905 15.0800799,16.36133 14.7246094,15.9824219 C14.3691388,15.6035137 13.7656293,15.2539079 12.9140625,14.9335938 C12.0624957,14.6132796 11.3281281,14.2949235 10.7109375,13.9785156 C10.0937469,13.6621078 9.56445533,13.2988302 9.12304688,12.8886719 C8.68163842,12.4785136 8.33789186,11.9960965 8.09179688,11.4414062 C7.84570189,10.886716 7.72265625,10.2265663 7.72265625,9.4609375 C7.72265625,8.1406184 8.14452703,7.05859797 8.98828125,6.21484375 C9.83203547,5.37108953 10.953118,4.87890695 12.3515625,4.73828125 L12.3515625,2.23046875 L14.2265625,2.23046875 L14.2265625,4.7734375 C15.6093819,4.96875098 16.6914023,5.54491709 17.4726562,6.50195312 C18.2539102,7.45898916 18.6445312,8.69921113 18.6445312,10.2226562 L15.2578125,10.2226562 C15.2578125,9.28515156 15.0644551,8.5839867 14.6777344,8.11914062 C14.2910137,7.65429455 13.7734407,7.421875 13.125,7.421875 C12.4843718,7.421875 11.988283,7.60351381 11.6367188,7.96679688 C11.2851545,8.33007994 11.109375,8.83202805 11.109375,9.47265625 C11.109375,10.0664092 11.2812483,10.542967 11.625,10.9023438 C11.9687517,11.2617205 12.6074172,11.6289044 13.5410156,12.0039062 C14.474614,12.3789081 15.2421845,12.7324202 15.84375,13.0644531 C16.4453155,13.396486 16.9531229,13.7714823 17.3671875,14.1894531 C17.7812521,14.607424 18.0976552,15.0839817 18.3164062,15.6191406 C18.5351573,16.1542996 18.6445312,16.7773402 18.6445312,17.4882812 C18.6445312,18.8164129 18.2304729,19.8945271 17.4023438,20.7226562 C16.5742146,21.5507854 15.433601,22.0390618 13.9804688,22.1875 L13.9804688,24.5195312 L12.1171875,24.5195312 L12.1171875,22.1992188 C10.515617,22.0273429 9.27539502,21.4589892 8.39648438,20.4941406 C7.51757373,19.5292921 7.078125,18.2461018 7.078125,16.6445312 L10.4648438,16.6445312 C10.4648438,17.5742234 10.6855447,18.2871069 11.1269531,18.7832031 C11.5683616,19.2792994 12.2031209,19.5273438 13.03125,19.5273438 C13.7187534,19.5273438 14.2617168,19.3457049 14.6601562,18.9824219 C15.0585957,18.6191388 15.2578125,18.1289093 15.2578125,17.5117188 L15.2578125,17.5117188 Z" id="Type-something" fill="#F6A623" sketch:type="MSShapeGroup"></path>
            </g>
        </g>
    </g>
</svg>