<?xml version="1.0" encoding="UTF-8" standalone="no"?>
<svg width="26px" height="26px" viewBox="0 0 26 26" version="1.1" xmlns="http://www.w3.org/2000/svg" xmlns:xlink="http://www.w3.org/1999/xlink" xmlns:sketch="http://www.bohemiancoding.com/sketch/ns">
    <!-- Generator: Sketch 3.2.2 (9983) - http://www.bohemiancoding.com/sketch -->
    <title>home-alternate-icon</title>
    <desc>Created with Sketch.</desc>
    <defs></defs>
    <g id="Page-1" stroke="none" stroke-width="1" fill="none" fill-rule="evenodd" sketch:type="MSPage">
        <g id="Featured-Resources-2" sketch:type="MSArtboardGroup" transform="translate(-148.000000, -17.000000)">
            <g id="home-alternate-icon" sketch:type="MSLayerGroup" transform="translate(148.000000, 17.000000)">
                <circle id="Oval-2" fill="#33B5E5" sketch:type="MSShapeGroup" cx="13" cy="13" r="13"></circle>
                <path d="M20.9858721,11.6353842 C21.017124,11.4943226 21.001498,11.353261 20.9077422,11.2370926 L13.2432013,3.09700715 C13.1103805,2.95594553 12.8916168,2.95594553 12.758796,3.09700715 L5.09425514,11.2370926 C5.00049929,11.353261 4.98487331,11.4943226 5.01612526,11.6353842 C5.07081618,11.7681481 5.20363697,11.8511255 5.33645776,11.8511255 L7.00062413,11.8511255 L7.00062413,19.634408 C7.00062413,19.8335538 7.1490709,19.9912109 7.3365826,19.9912109 L10.6649154,19.9912109 C10.8524271,19.9912109 11.0008738,19.8335538 11.0008738,19.634408 L11.0008738,13.6185447 L15.0011235,13.6185447 L15.0011235,19.634408 C15.0011235,19.8335538 15.1495703,19.9912109 15.337082,19.9912109 L18.6654147,19.9912109 C18.8529264,19.9912109 19.0013732,19.8335538 19.0013732,19.634408 L19.0013732,11.8511255 L20.6655396,11.8511255 C20.7983604,11.8511255 20.9311812,11.7681481 20.9858721,11.6353842 L20.9858721,11.6353842 Z" id="home-icon-2" fill="#C2E8F7" sketch:type="MSShapeGroup"></path>
            </g>
        </g>
    </g>
</svg>