<?xml version="1.0" encoding="UTF-8" standalone="no"?>
<svg width="24px" height="24px" viewBox="0 0 24 24" version="1.1" xmlns="http://www.w3.org/2000/svg" xmlns:xlink="http://www.w3.org/1999/xlink" xmlns:sketch="http://www.bohemiancoding.com/sketch/ns">
    <!-- Generator: Sketch 3.2.2 (9983) - http://www.bohemiancoding.com/sketch -->
    <title>category-housing-icon</title>
    <desc>Created with Sketch.</desc>
    <defs></defs>
    <g id="Featured-Resources" stroke="none" stroke-width="1" fill="none" fill-rule="evenodd" sketch:type="MSPage">
        <g sketch:type="MSArtboardGroup" transform="translate(-181.000000, -746.000000)" id="HOUSING-CATEGORY" fill="#F6A623">
            <g sketch:type="MSLayerGroup" transform="translate(181.000000, 745.000000)">
                <path d="M23.9765625,13.1992187 C24.0234375,13 24,12.8007812 23.859375,12.6367188 L12.3632812,1.140625 C12.1640625,0.94140625 11.8359375,0.94140625 11.6367187,1.140625 L0.140625,12.6367188 C-3.5249581e-15,12.8007812 -0.0234375,13 0.0234375,13.1992187 C0.10546875,13.3867188 0.3046875,13.5039062 0.50390625,13.5039062 L3,13.5039062 L3,24.4960938 C3,24.7773438 3.22265625,25 3.50390625,25 L8.49609375,25 C8.77734375,25 9,24.7773438 9,24.4960938 L9,16 L15,16 L15,24.4960938 C15,24.7773438 15.2226562,25 15.5039062,25 L20.4960938,25 C20.7773438,25 21,24.7773438 21,24.4960938 L21,13.5039062 L23.4960938,13.5039062 C23.6953125,13.5039062 23.8945312,13.3867188 23.9765625,13.1992187 L23.9765625,13.1992187 Z" id="category-housing-icon" sketch:type="MSShapeGroup"></path>
            </g>
        </g>
    </g>
</svg>