<?xml version="1.0" encoding="UTF-8" standalone="no"?>
<svg width="27px" height="32px" viewBox="0 0 27 32" version="1.1" xmlns="http://www.w3.org/2000/svg" xmlns:xlink="http://www.w3.org/1999/xlink" xmlns:sketch="http://www.bohemiancoding.com/sketch/ns">
    <!-- Generator: Sketch 3.2.2 (9983) - http://www.bohemiancoding.com/sketch -->
    <title>transportation-icon</title>
    <desc>Created with Sketch.</desc>
    <defs></defs>
    <g id="Page-1" stroke="none" stroke-width="1" fill="none" fill-rule="evenodd" sketch:type="MSPage">
        <g id="Featured-Resources-2" sketch:type="MSArtboardGroup" transform="translate(-20.000000, -227.000000)" fill="#F6A623">
            <g id="EMPLOYMENT-CATEGORY" sketch:type="MSLayerGroup" transform="translate(20.000000, 227.000000)">
                <path d="M25.6859051,4.72836645 C25.3225518,2.95926934 24.1563795,2.2542547 22.3995097,1.55052017 C20.6823508,0.853826172 16.5527638,0.0252819594 13.4996691,0 C10.4409486,0.0252819594 6.31136169,0.853826172 4.58195857,1.55084019 C2.83766393,2.25457473 1.6714916,2.95958937 1.31409486,4.72868647 L0,14.4920031 L0,27.9621671 L2.26351269,27.9621671 L2.26351269,30.0628099 C2.25457777,32.64573 6.15020223,32.64573 6.15185685,30.0628099 L6.15185685,27.9621671 L13.3451281,27.9621671 L13.3629979,27.9621671 L20.8481432,27.9621671 L20.8481432,30.0628099 C20.8435102,32.64573 24.7394656,32.64573 24.7364873,30.0628099 L24.7364873,27.9621671 L27,27.9621671 L27,14.4920031 L25.6859051,4.72836645 L25.6859051,4.72836645 Z M7.94082608,2.46899135 L13.3629979,2.46899135 L19.058843,2.46899135 C20.1462557,2.46611112 20.1462557,4.05279409 19.058843,4.05791449 L13.3451281,4.05791449 L7.94082608,4.05791449 C6.84811864,4.05279409 6.84811864,2.46611112 7.94082608,2.46899135 L7.94082608,2.46899135 Z M4.19841892,23.7429601 C3.17222699,23.7381597 2.33499203,22.929457 2.33631572,21.9245792 C2.33499203,20.9328223 3.17222699,20.1237996 4.19841892,20.1237996 C5.23619316,20.1237996 6.07309719,20.9328223 6.07905381,21.9245792 C6.07309719,22.929457 5.23619316,23.7384797 4.19841892,23.7429601 L4.19841892,23.7429601 Z M13.3629979,15.5154424 L3.45020223,15.5154424 C2.48225273,15.5244031 2.27873514,14.8494708 2.37371001,14.1738985 L3.39559995,7.07670844 C3.53624219,6.22224222 3.83771296,5.65483825 5.00189974,5.64683763 L13.345459,5.64683763 L21.9987621,5.64683763 C23.1563304,5.65483825 23.458794,6.2219222 23.6050619,7.07670844 L24.6276137,14.1738985 C24.7156392,14.8497909 24.5124525,15.5244031 23.5501287,15.5154424 L13.3629979,15.5154424 L13.3629979,15.5154424 Z M22.7833803,23.7429601 C21.7575193,23.7381597 20.9209462,22.929457 20.9209462,21.9245792 C20.9209462,20.9328223 21.7575193,20.1237996 22.7833803,20.1237996 C23.8214855,20.1237996 24.6587204,20.9328223 24.6633534,21.9245792 C24.6587204,22.929457 23.8214855,23.7384797 22.7833803,23.7429601 L22.7833803,23.7429601 Z" id="transportation-icon" sketch:type="MSShapeGroup"></path>
            </g>
        </g>
    </g>
</svg>